<?xml version="1.0" encoding="UTF-8"?>
<svg xmlns="http://www.w3.org/2000/svg" xmlns:xlink="http://www.w3.org/1999/xlink" width="25px" height="25px" viewBox="0 0 25 25" version="1.1">
<g id="surface1">
<path style=" stroke:none;fill-rule:evenodd;fill:rgb(30.980392%,34.509804%,46.27451%);fill-opacity:1;" d="M 19.65625 4.460938 C 14.132812 4.589844 8.609375 4.589844 3.089844 4.460938 C 8.609375 4.328125 14.132812 4.328125 19.65625 4.460938 Z M 19.65625 4.460938 "/>
<path style=" stroke:none;fill-rule:evenodd;fill:rgb(13.72549%,21.960784%,34.901961%);fill-opacity:1;" d="M 3.089844 4.460938 C 8.609375 4.589844 14.132812 4.589844 19.65625 4.460938 C 20.28125 4.480469 20.804688 4.707031 21.226562 5.148438 C 21.21875 5.296875 21.285156 5.394531 21.421875 5.441406 C 21.414062 5.589844 21.480469 5.6875 21.617188 5.734375 C 21.699219 5.769531 21.734375 5.835938 21.714844 5.929688 C 21.804688 6.972656 21.835938 8.019531 21.8125 9.070312 C 21.546875 9.058594 21.285156 9.089844 21.03125 9.167969 C 20.867188 8.273438 20.769531 7.355469 20.734375 6.421875 C 20.734375 6.355469 20.703125 6.324219 20.636719 6.324219 C 20.476562 6.097656 20.28125 5.902344 20.050781 5.734375 C 20.039062 5.675781 20.003906 5.625 19.949219 5.589844 C 14.230469 5.523438 8.511719 5.523438 2.792969 5.589844 C 2.738281 5.625 2.707031 5.675781 2.695312 5.734375 C 2.46875 5.882812 2.289062 6.078125 2.15625 6.324219 C 2.089844 9.753906 2.089844 13.1875 2.15625 16.617188 C 2.289062 16.863281 2.46875 17.058594 2.695312 17.207031 C 2.707031 17.265625 2.738281 17.316406 2.792969 17.351562 C 6.226562 17.402344 9.65625 17.417969 13.089844 17.402344 C 13.007812 17.757812 12.941406 18.117188 12.890625 18.480469 C 9.609375 18.59375 6.308594 18.609375 2.988281 18.53125 C 2.804688 18.511719 2.640625 18.460938 2.5 18.382812 C 2.402344 18.265625 2.269531 18.203125 2.109375 18.1875 C 1.425781 17.847656 1.019531 17.289062 0.882812 16.519531 C 0.800781 13.136719 0.816406 9.769531 0.929688 6.421875 C 1.070312 6.222656 1.136719 5.996094 1.128906 5.734375 C 1.179688 5.566406 1.277344 5.433594 1.421875 5.34375 C 1.550781 5.277344 1.648438 5.179688 1.714844 5.050781 C 2.074219 4.644531 2.53125 4.449219 3.089844 4.460938 Z M 3.089844 4.460938 "/>
<path style=" stroke:none;fill-rule:evenodd;fill:rgb(53.333333%,58.039216%,65.098039%);fill-opacity:1;" d="M 1.714844 5.050781 C 1.648438 5.179688 1.550781 5.277344 1.421875 5.34375 C 1.421875 5.148438 1.519531 5.050781 1.714844 5.050781 Z M 1.714844 5.050781 "/>
<path style=" stroke:none;fill-rule:evenodd;fill:rgb(52.941176%,57.647059%,64.705882%);fill-opacity:1;" d="M 21.226562 5.148438 C 21.363281 5.195312 21.429688 5.292969 21.421875 5.441406 C 21.285156 5.394531 21.21875 5.296875 21.226562 5.148438 Z M 21.226562 5.148438 "/>
<path style=" stroke:none;fill-rule:evenodd;fill:rgb(26.666667%,34.509804%,45.490196%);fill-opacity:1;" d="M 20.050781 5.734375 C 14.265625 5.605469 8.480469 5.605469 2.695312 5.734375 C 2.707031 5.675781 2.738281 5.625 2.792969 5.589844 C 8.511719 5.523438 14.230469 5.523438 19.949219 5.589844 C 20.003906 5.625 20.039062 5.675781 20.050781 5.734375 Z M 20.050781 5.734375 "/>
<path style=" stroke:none;fill-rule:evenodd;fill:rgb(50.980392%,56.078431%,63.137255%);fill-opacity:1;" d="M 21.421875 5.441406 C 21.558594 5.488281 21.625 5.585938 21.617188 5.734375 C 21.480469 5.6875 21.414062 5.589844 21.421875 5.441406 Z M 21.421875 5.441406 "/>
<path style=" stroke:none;fill-rule:evenodd;fill:rgb(41.568627%,47.058824%,56.078431%);fill-opacity:1;" d="M 1.128906 5.734375 C 1.136719 5.996094 1.070312 6.222656 0.929688 6.421875 C 0.921875 6.160156 0.988281 5.933594 1.128906 5.734375 Z M 1.128906 5.734375 "/>
<path style=" stroke:none;fill-rule:evenodd;fill:rgb(81.568627%,83.137255%,85.882353%);fill-opacity:1;" d="M 20.636719 6.324219 C 20.703125 6.324219 20.734375 6.355469 20.734375 6.421875 C 20.671875 7.40625 20.738281 8.355469 20.929688 9.265625 C 20.863281 9.351562 20.765625 9.386719 20.636719 9.363281 C 20.636719 8.351562 20.636719 7.335938 20.636719 6.324219 Z M 20.636719 6.324219 "/>
<path style=" stroke:none;fill-rule:evenodd;fill:rgb(23.529412%,31.764706%,43.137255%);fill-opacity:1;" d="M 20.734375 6.421875 C 20.769531 7.355469 20.867188 8.273438 21.03125 9.167969 C 21.03125 9.199219 21.03125 9.230469 21.03125 9.265625 C 20.996094 9.265625 20.964844 9.265625 20.929688 9.265625 C 20.738281 8.355469 20.671875 7.40625 20.734375 6.421875 Z M 20.734375 6.421875 "/>
<path style=" stroke:none;fill-rule:evenodd;fill:rgb(51.764706%,57.254902%,63.921569%);fill-opacity:1;" d="M 21.714844 5.929688 C 21.789062 6.007812 21.839844 6.105469 21.863281 6.226562 C 21.910156 7.207031 21.929688 8.1875 21.910156 9.167969 C 21.613281 9.167969 21.320312 9.199219 21.03125 9.265625 C 21.03125 9.230469 21.03125 9.199219 21.03125 9.167969 C 21.285156 9.089844 21.546875 9.058594 21.8125 9.070312 C 21.835938 8.019531 21.804688 6.972656 21.714844 5.929688 Z M 21.714844 5.929688 "/>
<path style=" stroke:none;fill-rule:evenodd;fill:rgb(16.078431%,23.529412%,36.470588%);fill-opacity:1;" d="M 18.1875 9.265625 C 18.261719 9.519531 18.292969 9.78125 18.285156 10.050781 C 18.230469 10.175781 18.132812 10.257812 17.988281 10.292969 C 13.578125 10.359375 9.167969 10.359375 4.753906 10.292969 C 4.335938 10.046875 4.253906 9.703125 4.511719 9.265625 C 4.582031 9.203125 4.664062 9.15625 4.753906 9.117188 C 9.167969 9.050781 13.578125 9.050781 17.988281 9.117188 C 18.078125 9.144531 18.144531 9.195312 18.1875 9.265625 Z M 18.1875 9.265625 "/>
<path style=" stroke:none;fill-rule:evenodd;fill:rgb(47.843137%,52.941176%,61.176471%);fill-opacity:1;" d="M 18.1875 9.265625 C 18.335938 9.363281 18.402344 9.507812 18.382812 9.707031 C 18.382812 9.839844 18.347656 9.957031 18.285156 10.050781 C 18.292969 9.78125 18.261719 9.519531 18.1875 9.265625 Z M 18.1875 9.265625 "/>
<path style=" stroke:none;fill-rule:evenodd;fill:rgb(13.72549%,22.352941%,35.294118%);fill-opacity:1;" d="M 22.890625 10.832031 C 23.082031 11.1875 23.34375 11.480469 23.675781 11.714844 C 24.265625 12.386719 24.3125 13.105469 23.824219 13.871094 C 21.8125 15.882812 19.804688 17.890625 17.792969 19.902344 C 17.671875 19.980469 17.542969 20.027344 17.402344 20.050781 C 16.667969 20.003906 15.949219 20.117188 15.246094 20.390625 C 15.351562 20.46875 15.351562 20.550781 15.246094 20.636719 C 14.9375 20.726562 14.625 20.824219 14.3125 20.929688 C 14.027344 20.875 13.832031 20.710938 13.726562 20.441406 C 13.796875 19.734375 13.945312 19.046875 14.167969 18.382812 C 14.355469 18.023438 14.453125 17.632812 14.460938 17.207031 C 14.480469 17.066406 14.53125 16.9375 14.609375 16.8125 C 16.683594 14.738281 18.757812 12.664062 20.832031 10.589844 C 21.578125 10.222656 22.265625 10.304688 22.890625 10.832031 Z M 22.011719 11.714844 C 22.304688 11.945312 22.566406 12.207031 22.792969 12.5 C 22.871094 12.652344 22.90625 12.816406 22.890625 12.988281 C 22.601562 13.316406 22.308594 13.640625 22.011719 13.96875 C 21.949219 13.980469 21.898438 14.015625 21.863281 14.070312 C 21.367188 13.589844 20.894531 13.101562 20.441406 12.597656 C 20.769531 12.304688 21.09375 12.011719 21.421875 11.714844 C 21.617188 11.585938 21.8125 11.585938 22.011719 11.714844 Z M 20.929688 14.851562 C 19.683594 16.25 18.375 17.605469 17.011719 18.921875 C 16.886719 18.945312 16.789062 18.992188 16.714844 19.070312 C 16.191406 19.167969 15.667969 19.265625 15.148438 19.363281 C 15.292969 18.777344 15.441406 18.1875 15.589844 17.597656 C 16.929688 16.257812 18.269531 14.917969 19.609375 13.578125 C 20.035156 14.023438 20.476562 14.449219 20.929688 14.851562 Z M 20.929688 14.851562 "/>
<path style=" stroke:none;fill-rule:evenodd;fill:rgb(57.647059%,61.960784%,68.235294%);fill-opacity:1;" d="M 22.890625 10.832031 C 23.226562 11.070312 23.488281 11.363281 23.675781 11.714844 C 23.34375 11.480469 23.082031 11.1875 22.890625 10.832031 Z M 22.890625 10.832031 "/>
<path style=" stroke:none;fill-rule:evenodd;fill:rgb(50.980392%,56.078431%,63.137255%);fill-opacity:1;" d="M 22.011719 11.714844 C 21.8125 11.585938 21.617188 11.585938 21.421875 11.714844 C 21.617188 11.453125 21.8125 11.453125 22.011719 11.714844 Z M 22.011719 11.714844 "/>
<path style=" stroke:none;fill-rule:evenodd;fill:rgb(56.078431%,60.392157%,67.058824%);fill-opacity:1;" d="M 20.441406 12.597656 C 20.894531 13.101562 21.367188 13.589844 21.863281 14.070312 C 21.898438 14.015625 21.949219 13.980469 22.011719 13.96875 C 21.976562 14.140625 21.878906 14.1875 21.714844 14.117188 C 21.273438 13.675781 20.832031 13.234375 20.390625 12.792969 C 20.324219 12.703125 20.339844 12.636719 20.441406 12.597656 Z M 20.441406 12.597656 "/>
<path style=" stroke:none;fill-rule:evenodd;fill:rgb(55.686275%,60.392157%,66.666667%);fill-opacity:1;" d="M 22.792969 12.5 C 22.90625 12.527344 22.972656 12.609375 22.988281 12.746094 C 22.988281 12.851562 22.953125 12.933594 22.890625 12.988281 C 22.90625 12.816406 22.871094 12.652344 22.792969 12.5 Z M 22.792969 12.5 "/>
<path style=" stroke:none;fill-rule:evenodd;fill:rgb(16.078431%,23.529412%,36.470588%);fill-opacity:1;" d="M 14.753906 12.890625 C 14.753906 13.121094 14.753906 13.351562 14.753906 13.578125 C 14.710938 13.671875 14.644531 13.753906 14.558594 13.824219 C 11.289062 13.890625 8.023438 13.890625 4.753906 13.824219 C 4.613281 13.785156 4.515625 13.703125 4.460938 13.578125 C 4.449219 13.308594 4.484375 13.046875 4.558594 12.792969 C 4.601562 12.722656 4.664062 12.675781 4.753906 12.648438 C 8.023438 12.582031 11.289062 12.582031 14.558594 12.648438 C 14.644531 12.714844 14.710938 12.796875 14.753906 12.890625 Z M 14.753906 12.890625 "/>
<path style=" stroke:none;fill-rule:evenodd;fill:rgb(61.960784%,65.882353%,71.764706%);fill-opacity:1;" d="M 4.558594 12.792969 C 4.484375 13.046875 4.449219 13.308594 4.460938 13.578125 C 4.398438 13.484375 4.363281 13.371094 4.363281 13.234375 C 4.34375 13.039062 4.410156 12.890625 4.558594 12.792969 Z M 4.558594 12.792969 "/>
<path style=" stroke:none;fill-rule:evenodd;fill:rgb(42.352941%,47.843137%,56.862745%);fill-opacity:1;" d="M 14.753906 12.890625 C 15.015625 13.121094 15.015625 13.351562 14.753906 13.578125 C 14.753906 13.351562 14.753906 13.121094 14.753906 12.890625 Z M 14.753906 12.890625 "/>
<path style=" stroke:none;fill-rule:evenodd;fill:rgb(35.686275%,42.352941%,52.156863%);fill-opacity:1;" d="M 2.695312 17.207031 C 6.1875 17.300781 9.683594 17.335938 13.1875 17.304688 C 13.179688 17.730469 13.078125 18.121094 12.890625 18.480469 C 12.941406 18.117188 13.007812 17.757812 13.089844 17.402344 C 9.65625 17.417969 6.226562 17.402344 2.792969 17.351562 C 2.738281 17.316406 2.707031 17.265625 2.695312 17.207031 Z M 2.695312 17.207031 "/>
<path style=" stroke:none;fill-rule:evenodd;fill:rgb(53.333333%,58.431373%,65.098039%);fill-opacity:1;" d="M 14.460938 17.207031 C 14.453125 17.632812 14.355469 18.023438 14.167969 18.382812 C 14.207031 17.964844 14.304688 17.574219 14.460938 17.207031 Z M 14.460938 17.207031 "/>
<path style=" stroke:none;fill-rule:evenodd;fill:rgb(59.607843%,63.529412%,69.803922%);fill-opacity:1;" d="M 2.109375 18.1875 C 2.269531 18.203125 2.402344 18.265625 2.5 18.382812 C 2.316406 18.410156 2.183594 18.34375 2.109375 18.1875 Z M 2.109375 18.1875 "/>
<path style=" stroke:none;fill-rule:evenodd;fill:rgb(47.843137%,52.941176%,61.176471%);fill-opacity:1;" d="M 20.929688 14.851562 C 21.035156 14.925781 21.054688 15.023438 20.980469 15.148438 C 19.691406 16.4375 18.398438 17.730469 17.109375 19.019531 C 16.980469 19.066406 16.851562 19.085938 16.714844 19.070312 C 16.789062 18.992188 16.886719 18.945312 17.011719 18.921875 C 18.375 17.605469 19.683594 16.25 20.929688 14.851562 Z M 20.929688 14.851562 "/>
<path style=" stroke:none;fill-rule:evenodd;fill:rgb(25.490196%,31.764706%,43.529412%);fill-opacity:1;" d="M 17.402344 20.050781 C 16.710938 20.300781 15.988281 20.496094 15.246094 20.636719 C 15.351562 20.550781 15.351562 20.46875 15.246094 20.390625 C 15.949219 20.117188 16.667969 20.003906 17.402344 20.050781 Z M 17.402344 20.050781 "/>
</g>
</svg>
