<?xml version="1.0" encoding="UTF-8"?>
<svg xmlns="http://www.w3.org/2000/svg" xmlns:xlink="http://www.w3.org/1999/xlink" width="25px" height="25px" viewBox="0 0 25 25" version="1.1">
<g id="surface1">
<path style=" stroke:none;fill-rule:evenodd;fill:rgb(14.509804%,22.745098%,35.686275%);fill-opacity:1;" d="M 11.421875 4.460938 C 11.414062 4.609375 11.480469 4.707031 11.617188 4.753906 C 11.609375 4.90625 11.675781 5.003906 11.8125 5.050781 C 11.804688 5.199219 11.871094 5.296875 12.011719 5.34375 C 13.210938 5.421875 14.421875 5.472656 15.636719 5.488281 C 16.03125 5.851562 16.03125 6.210938 15.636719 6.570312 C 15.34375 6.617188 15.050781 6.632812 14.753906 6.617188 C 14.769531 10.867188 14.753906 15.113281 14.707031 19.363281 C 14.542969 20.539062 13.90625 21.339844 12.792969 21.765625 C 11.28125 21.875 9.761719 21.925781 8.234375 21.910156 C 6.710938 21.925781 5.191406 21.875 3.675781 21.765625 C 2.566406 21.339844 1.929688 20.539062 1.765625 19.363281 C 1.714844 15.113281 1.699219 10.867188 1.714844 6.617188 C 1.417969 6.632812 1.125 6.617188 0.832031 6.570312 C 0.441406 6.210938 0.441406 5.851562 0.832031 5.488281 C 2.050781 5.472656 3.257812 5.421875 4.460938 5.34375 C 4.597656 5.296875 4.664062 5.199219 4.65625 5.050781 C 4.714844 4.859375 4.816406 4.695312 4.949219 4.558594 C 5.089844 4.511719 5.152344 4.414062 5.148438 4.265625 C 5.359375 3.710938 5.75 3.335938 6.324219 3.136719 C 7.597656 3.070312 8.871094 3.070312 10.148438 3.136719 C 10.792969 3.375 11.21875 3.816406 11.421875 4.460938 Z M 6.617188 4.265625 C 7.695312 4.25 8.773438 4.265625 9.851562 4.3125 C 10.164062 4.636719 10.421875 4.996094 10.636719 5.390625 C 9.035156 5.457031 7.433594 5.457031 5.832031 5.390625 C 6.058594 4.988281 6.320312 4.613281 6.617188 4.265625 Z M 13.480469 19.363281 C 13.378906 19.503906 13.3125 19.667969 13.285156 19.851562 C 12.996094 20.324219 12.570312 20.601562 12.011719 20.6875 C 9.492188 20.75 6.976562 20.75 4.460938 20.6875 C 3.898438 20.601562 3.472656 20.324219 3.1875 19.851562 C 3.15625 19.667969 3.09375 19.503906 2.988281 19.363281 C 2.988281 15.113281 2.988281 10.867188 2.988281 6.617188 C 6.488281 6.617188 9.984375 6.617188 13.480469 6.617188 C 13.480469 10.867188 13.480469 15.113281 13.480469 19.363281 Z M 13.480469 19.363281 "/>
<path style=" stroke:none;fill-rule:evenodd;fill:rgb(50.588235%,55.686275%,63.137255%);fill-opacity:1;" d="M 5.148438 4.265625 C 5.152344 4.414062 5.089844 4.511719 4.949219 4.558594 C 4.945312 4.410156 5.007812 4.3125 5.148438 4.265625 Z M 5.148438 4.265625 "/>
<path style=" stroke:none;fill-rule:evenodd;fill:rgb(46.27451%,51.372549%,59.607843%);fill-opacity:1;" d="M 11.421875 4.460938 C 11.558594 4.507812 11.625 4.605469 11.617188 4.753906 C 11.480469 4.707031 11.414062 4.609375 11.421875 4.460938 Z M 11.421875 4.460938 "/>
<path style=" stroke:none;fill-rule:evenodd;fill:rgb(47.843137%,53.333333%,60.784314%);fill-opacity:1;" d="M 11.617188 4.753906 C 11.753906 4.800781 11.820312 4.898438 11.8125 5.050781 C 11.675781 5.003906 11.609375 4.90625 11.617188 4.753906 Z M 11.617188 4.753906 "/>
<path style=" stroke:none;fill-rule:evenodd;fill:rgb(46.27451%,51.372549%,59.607843%);fill-opacity:1;" d="M 4.65625 5.050781 C 4.664062 5.199219 4.597656 5.296875 4.460938 5.34375 C 4.453125 5.195312 4.519531 5.09375 4.65625 5.050781 Z M 4.65625 5.050781 "/>
<path style=" stroke:none;fill-rule:evenodd;fill:rgb(49.411765%,54.509804%,62.352941%);fill-opacity:1;" d="M 11.8125 5.050781 C 11.953125 5.09375 12.015625 5.195312 12.011719 5.34375 C 11.871094 5.296875 11.804688 5.199219 11.8125 5.050781 Z M 11.8125 5.050781 "/>
<path style=" stroke:none;fill-rule:evenodd;fill:rgb(11.372549%,20.392157%,33.72549%);fill-opacity:1;" d="M 17.304688 7.792969 C 19.492188 7.777344 21.683594 7.792969 23.871094 7.84375 C 24.265625 8.203125 24.265625 8.5625 23.871094 8.921875 C 21.683594 8.988281 19.492188 8.988281 17.304688 8.921875 C 16.917969 8.546875 16.917969 8.171875 17.304688 7.792969 Z M 17.304688 7.792969 "/>
<path style=" stroke:none;fill-rule:evenodd;fill:rgb(18.431373%,25.882353%,38.431373%);fill-opacity:1;" d="M 6.128906 8.96875 C 6.359375 8.953125 6.585938 8.972656 6.8125 9.019531 C 6.929688 9.109375 7.011719 9.222656 7.058594 9.363281 C 7.125 12.238281 7.125 15.113281 7.058594 17.988281 C 6.859375 18.363281 6.546875 18.476562 6.128906 18.332031 C 6.007812 18.246094 5.929688 18.128906 5.882812 17.988281 C 5.816406 15.113281 5.816406 12.238281 5.882812 9.363281 C 5.949219 9.21875 6.027344 9.085938 6.128906 8.96875 Z M 6.128906 8.96875 "/>
<path style=" stroke:none;fill-rule:evenodd;fill:rgb(18.431373%,25.882353%,38.431373%);fill-opacity:1;" d="M 9.65625 8.96875 C 9.886719 8.953125 10.117188 8.972656 10.34375 9.019531 C 10.460938 9.109375 10.542969 9.222656 10.589844 9.363281 C 10.652344 12.238281 10.652344 15.113281 10.589844 17.988281 C 10.386719 18.363281 10.078125 18.476562 9.65625 18.332031 C 9.539062 18.246094 9.457031 18.128906 9.410156 17.988281 C 9.347656 15.113281 9.347656 12.238281 9.410156 9.363281 C 9.476562 9.21875 9.558594 9.085938 9.65625 8.96875 Z M 9.65625 8.96875 "/>
<path style=" stroke:none;fill-rule:evenodd;fill:rgb(11.764706%,20.784314%,34.117647%);fill-opacity:1;" d="M 17.304688 12.5 C 19.101562 12.484375 20.898438 12.5 22.695312 12.550781 C 23.089844 12.910156 23.089844 13.269531 22.695312 13.628906 C 20.898438 13.691406 19.101562 13.691406 17.304688 13.628906 C 16.917969 13.253906 16.917969 12.875 17.304688 12.5 Z M 17.304688 12.5 "/>
<path style=" stroke:none;fill-rule:evenodd;fill:rgb(13.72549%,21.960784%,35.294118%);fill-opacity:1;" d="M 17.304688 17.207031 C 18.316406 17.191406 19.332031 17.207031 20.34375 17.253906 C 20.734375 17.613281 20.734375 17.972656 20.34375 18.332031 C 19.332031 18.398438 18.316406 18.398438 17.304688 18.332031 C 16.917969 17.957031 16.917969 17.582031 17.304688 17.207031 Z M 17.304688 17.207031 "/>
<path style=" stroke:none;fill-rule:evenodd;fill:rgb(49.803922%,54.901961%,62.352941%);fill-opacity:1;" d="M 2.988281 19.363281 C 3.09375 19.503906 3.15625 19.667969 3.1875 19.851562 C 3.019531 19.742188 2.953125 19.578125 2.988281 19.363281 Z M 2.988281 19.363281 "/>
<path style=" stroke:none;fill-rule:evenodd;fill:rgb(49.803922%,54.901961%,62.352941%);fill-opacity:1;" d="M 13.480469 19.363281 C 13.519531 19.578125 13.453125 19.742188 13.285156 19.851562 C 13.3125 19.667969 13.378906 19.503906 13.480469 19.363281 Z M 13.480469 19.363281 "/>
</g>
</svg>
