<?xml version="1.0" encoding="UTF-8"?>
<svg xmlns="http://www.w3.org/2000/svg" xmlns:xlink="http://www.w3.org/1999/xlink" width="20px" height="20px" viewBox="0 0 20 20" version="1.1">
<g id="surface1">
<path style=" stroke:none;fill-rule:evenodd;fill:rgb(20%,20%,20%);fill-opacity:1;" d="M 12.273438 0.507812 C 12.417969 0.664062 12.601562 0.742188 12.824219 0.742188 C 12.867188 0.898438 12.96875 0.976562 13.136719 0.980469 C 13.210938 1.183594 13.339844 1.339844 13.527344 1.449219 C 13.5 1.621094 13.554688 1.753906 13.6875 1.84375 C 13.660156 2.078125 13.738281 2.257812 13.921875 2.390625 C 13.898438 2.628906 13.976562 2.808594 14.15625 2.941406 C 14.132812 3.175781 14.210938 3.359375 14.390625 3.492188 C 14.390625 3.542969 14.390625 3.59375 14.390625 3.648438 C 15.769531 3.699219 17.15625 3.753906 18.550781 3.804688 C 18.550781 4.222656 18.550781 4.640625 18.550781 5.058594 C 18.46875 5.148438 18.367188 5.203125 18.234375 5.214844 C 17.816406 5.214844 17.398438 5.214844 16.980469 5.214844 C 17.007812 9.398438 16.976562 13.585938 16.902344 17.765625 C 16.789062 17.867188 16.738281 17.996094 16.742188 18.15625 C 16.757812 18.234375 16.730469 18.289062 16.664062 18.3125 C 16.554688 18.351562 16.503906 18.429688 16.507812 18.550781 C 16.507812 18.601562 16.484375 18.628906 16.429688 18.628906 C 16.320312 18.664062 16.269531 18.742188 16.273438 18.863281 C 16.15625 18.855469 16.074219 18.910156 16.039062 19.019531 C 16.003906 19.132812 15.925781 19.179688 15.804688 19.175781 C 15.691406 19.171875 15.585938 19.195312 15.492188 19.257812 C 11.695312 19.277344 7.90625 19.253906 4.117188 19.175781 C 4.082031 19.066406 4.003906 19.011719 3.882812 19.019531 C 3.796875 18.855469 3.664062 18.75 3.492188 18.707031 C 3.460938 18.652344 3.4375 18.601562 3.414062 18.550781 C 3.417969 18.429688 3.367188 18.351562 3.257812 18.3125 C 3.1875 18.109375 3.132812 17.898438 3.097656 17.6875 C 3.046875 13.519531 2.992188 9.363281 2.941406 5.214844 C 2.457031 5.152344 1.960938 5.101562 1.449219 5.058594 C 1.449219 4.617188 1.449219 4.167969 1.449219 3.726562 C 2.839844 3.777344 4.199219 3.726562 5.527344 3.570312 C 5.664062 3.476562 5.714844 3.351562 5.6875 3.175781 C 5.867188 3.042969 5.945312 2.863281 5.921875 2.628906 C 6.113281 2.335938 6.28125 2.023438 6.429688 1.6875 C 6.46875 1.585938 6.484375 1.480469 6.472656 1.371094 C 6.679688 1.214844 6.863281 1.03125 7.019531 0.824219 C 7.257812 0.761719 7.46875 0.660156 7.648438 0.507812 C 9.191406 0.40625 10.730469 0.40625 12.273438 0.507812 Z M 12.117188 2.15625 C 12.207031 2.492188 12.335938 2.804688 12.507812 3.097656 C 12.507812 3.261719 12.558594 3.40625 12.664062 3.527344 C 10.890625 3.570312 9.113281 3.582031 7.335938 3.570312 C 7.414062 3.304688 7.492188 3.046875 7.570312 2.785156 C 7.710938 2.601562 7.820312 2.390625 7.882812 2.15625 C 9.289062 2.054688 10.703125 2.054688 12.117188 2.15625 Z M 4.507812 5.292969 C 8.144531 5.292969 11.777344 5.292969 15.414062 5.292969 C 15.425781 9.269531 15.414062 13.242188 15.371094 17.214844 C 15.320312 17.421875 15.230469 17.605469 15.097656 17.765625 C 11.671875 17.777344 8.246094 17.765625 4.824219 17.726562 C 4.78125 17.667969 4.726562 17.632812 4.664062 17.609375 C 4.632812 17.476562 4.597656 17.347656 4.550781 17.214844 C 4.507812 13.242188 4.496094 9.269531 4.507812 5.292969 Z M 4.507812 5.292969 "/>
<path style=" stroke:none;fill-rule:evenodd;fill:rgb(52.54902%,52.54902%,52.54902%);fill-opacity:1;" d="M 12.273438 0.507812 C 12.492188 0.523438 12.671875 0.601562 12.824219 0.742188 C 12.601562 0.742188 12.417969 0.664062 12.273438 0.507812 Z M 12.273438 0.507812 "/>
<path style=" stroke:none;fill-rule:evenodd;fill:rgb(50.980392%,50.980392%,50.980392%);fill-opacity:1;" d="M 7.648438 0.507812 C 7.46875 0.660156 7.257812 0.761719 7.019531 0.824219 C 7.183594 0.648438 7.394531 0.539062 7.648438 0.507812 Z M 7.648438 0.507812 "/>
<path style=" stroke:none;fill-rule:evenodd;fill:rgb(47.45098%,47.45098%,47.45098%);fill-opacity:1;" d="M 12.824219 0.742188 C 12.960938 0.789062 13.0625 0.867188 13.136719 0.980469 C 12.96875 0.976562 12.867188 0.898438 12.824219 0.742188 Z M 12.824219 0.742188 "/>
<path style=" stroke:none;fill-rule:evenodd;fill:rgb(57.254902%,57.254902%,57.254902%);fill-opacity:1;" d="M 7.019531 0.824219 C 6.863281 1.03125 6.679688 1.214844 6.472656 1.371094 C 6.574219 1.113281 6.757812 0.929688 7.019531 0.824219 Z M 7.019531 0.824219 "/>
<path style=" stroke:none;fill-rule:evenodd;fill:rgb(60.784314%,60.784314%,60.784314%);fill-opacity:1;" d="M 13.136719 0.980469 C 13.328125 1.089844 13.457031 1.246094 13.527344 1.449219 C 13.339844 1.339844 13.210938 1.183594 13.136719 0.980469 Z M 13.136719 0.980469 "/>
<path style=" stroke:none;fill-rule:evenodd;fill:rgb(54.901961%,54.901961%,54.901961%);fill-opacity:1;" d="M 13.527344 1.449219 C 13.609375 1.5625 13.664062 1.695312 13.6875 1.84375 C 13.554688 1.753906 13.5 1.621094 13.527344 1.449219 Z M 13.527344 1.449219 "/>
<path style=" stroke:none;fill-rule:evenodd;fill:rgb(50.588235%,50.588235%,50.588235%);fill-opacity:1;" d="M 6.472656 1.371094 C 6.484375 1.480469 6.46875 1.585938 6.429688 1.6875 C 6.28125 2.023438 6.113281 2.335938 5.921875 2.628906 C 6.042969 2.179688 6.226562 1.757812 6.472656 1.371094 Z M 6.472656 1.371094 "/>
<path style=" stroke:none;fill-rule:evenodd;fill:rgb(58.431373%,58.431373%,58.431373%);fill-opacity:1;" d="M 12.117188 2.15625 C 10.703125 2.054688 9.289062 2.054688 7.882812 2.15625 C 8.546875 2.054688 9.242188 2 9.960938 2 C 10.652344 2.011719 11.347656 2.023438 12.039062 2.039062 C 12.085938 2.070312 12.109375 2.109375 12.117188 2.15625 Z M 12.117188 2.15625 "/>
<path style=" stroke:none;fill-rule:evenodd;fill:rgb(57.254902%,57.254902%,57.254902%);fill-opacity:1;" d="M 13.6875 1.84375 C 13.808594 2 13.886719 2.183594 13.921875 2.390625 C 13.738281 2.257812 13.660156 2.078125 13.6875 1.84375 Z M 13.6875 1.84375 "/>
<path style=" stroke:none;fill-rule:evenodd;fill:rgb(69.019608%,69.019608%,69.019608%);fill-opacity:1;" d="M 7.882812 2.15625 C 7.820312 2.390625 7.710938 2.601562 7.570312 2.785156 C 7.570312 2.507812 7.675781 2.300781 7.882812 2.15625 Z M 7.882812 2.15625 "/>
<path style=" stroke:none;fill-rule:evenodd;fill:rgb(56.470588%,56.470588%,56.470588%);fill-opacity:1;" d="M 13.921875 2.390625 C 14.042969 2.550781 14.121094 2.730469 14.15625 2.941406 C 13.976562 2.808594 13.898438 2.628906 13.921875 2.390625 Z M 13.921875 2.390625 "/>
<path style=" stroke:none;fill-rule:evenodd;fill:rgb(58.039216%,58.039216%,58.039216%);fill-opacity:1;" d="M 12.117188 2.15625 C 12.332031 2.429688 12.460938 2.742188 12.507812 3.097656 C 12.335938 2.804688 12.207031 2.492188 12.117188 2.15625 Z M 12.117188 2.15625 "/>
<path style=" stroke:none;fill-rule:evenodd;fill:rgb(54.901961%,54.901961%,54.901961%);fill-opacity:1;" d="M 5.921875 2.628906 C 5.945312 2.863281 5.867188 3.042969 5.6875 3.175781 C 5.722656 2.96875 5.800781 2.785156 5.921875 2.628906 Z M 5.921875 2.628906 "/>
<path style=" stroke:none;fill-rule:evenodd;fill:rgb(58.431373%,58.431373%,58.431373%);fill-opacity:1;" d="M 14.15625 2.941406 C 14.277344 3.101562 14.359375 3.28125 14.390625 3.492188 C 14.210938 3.359375 14.132812 3.175781 14.15625 2.941406 Z M 14.15625 2.941406 "/>
<path style=" stroke:none;fill-rule:evenodd;fill:rgb(58.431373%,58.431373%,58.431373%);fill-opacity:1;" d="M 5.6875 3.175781 C 5.714844 3.351562 5.664062 3.476562 5.527344 3.570312 C 5.523438 3.40625 5.574219 3.277344 5.6875 3.175781 Z M 5.6875 3.175781 "/>
<path style=" stroke:none;fill-rule:evenodd;fill:rgb(67.843137%,67.843137%,67.843137%);fill-opacity:1;" d="M 7.570312 2.785156 C 7.492188 3.046875 7.414062 3.304688 7.335938 3.570312 C 9.113281 3.582031 10.890625 3.570312 12.664062 3.527344 C 12.558594 3.40625 12.507812 3.261719 12.507812 3.097656 C 12.648438 3.25 12.726562 3.429688 12.742188 3.648438 C 10.914062 3.648438 9.085938 3.648438 7.257812 3.648438 C 7.257812 3.570312 7.257812 3.492188 7.257812 3.414062 C 7.316406 3.171875 7.421875 2.960938 7.570312 2.785156 Z M 7.570312 2.785156 "/>
<path style=" stroke:none;fill-rule:evenodd;fill:rgb(69.803922%,69.803922%,69.803922%);fill-opacity:1;" d="M 14.390625 3.492188 C 15.707031 3.539062 17.015625 3.59375 18.3125 3.648438 C 17.007812 3.648438 15.699219 3.648438 14.390625 3.648438 C 14.390625 3.59375 14.390625 3.542969 14.390625 3.492188 Z M 14.390625 3.492188 "/>
<path style=" stroke:none;fill-rule:evenodd;fill:rgb(46.27451%,46.27451%,46.27451%);fill-opacity:1;" d="M 5.527344 3.570312 C 4.199219 3.726562 2.839844 3.777344 1.449219 3.726562 C 1.484375 3.667969 1.539062 3.628906 1.609375 3.609375 C 2.914062 3.570312 4.222656 3.554688 5.527344 3.570312 Z M 5.527344 3.570312 "/>
<path style=" stroke:none;fill-rule:evenodd;fill:rgb(34.901961%,34.901961%,34.901961%);fill-opacity:1;" d="M 7.257812 3.414062 C 7.257812 3.492188 7.257812 3.570312 7.257812 3.648438 C 9.085938 3.648438 10.914062 3.648438 12.742188 3.648438 C 10.902344 3.726562 9.046875 3.75 7.175781 3.726562 C 7.15625 3.601562 7.179688 3.496094 7.257812 3.414062 Z M 7.257812 3.414062 "/>
<path style=" stroke:none;fill-rule:evenodd;fill:rgb(36.862745%,36.862745%,36.862745%);fill-opacity:1;" d="M 14.390625 3.648438 C 15.699219 3.648438 17.007812 3.648438 18.3125 3.648438 C 18.445312 3.632812 18.523438 3.679688 18.550781 3.804688 C 17.15625 3.753906 15.769531 3.699219 14.390625 3.648438 Z M 14.390625 3.648438 "/>
<path style=" stroke:none;fill-rule:evenodd;fill:rgb(74.901961%,74.901961%,74.901961%);fill-opacity:1;" d="M 18.550781 3.804688 C 18.667969 3.972656 18.722656 4.167969 18.707031 4.390625 C 18.714844 4.640625 18.664062 4.863281 18.550781 5.058594 C 18.550781 4.640625 18.550781 4.222656 18.550781 3.804688 Z M 18.550781 3.804688 "/>
<path style=" stroke:none;fill-rule:evenodd;fill:rgb(42.352941%,42.352941%,42.352941%);fill-opacity:1;" d="M 1.449219 3.726562 C 1.449219 4.167969 1.449219 4.617188 1.449219 5.058594 C 1.960938 5.101562 2.457031 5.152344 2.941406 5.214844 C 2.523438 5.214844 2.101562 5.214844 1.6875 5.214844 C 1.523438 5.207031 1.40625 5.128906 1.335938 4.980469 C 1.28125 4.585938 1.28125 4.195312 1.335938 3.804688 C 1.363281 3.757812 1.402344 3.734375 1.449219 3.726562 Z M 1.449219 3.726562 "/>
<path style=" stroke:none;fill-rule:evenodd;fill:rgb(26.27451%,26.27451%,26.27451%);fill-opacity:1;" d="M 2.941406 5.214844 C 2.992188 9.363281 3.046875 13.519531 3.097656 17.6875 C 3.046875 17.632812 2.992188 17.582031 2.941406 17.527344 C 2.941406 13.425781 2.941406 9.320312 2.941406 5.214844 Z M 2.941406 5.214844 "/>
<path style=" stroke:none;fill-rule:evenodd;fill:rgb(68.235294%,68.235294%,68.235294%);fill-opacity:1;" d="M 1.6875 5.214844 C 2.101562 5.214844 2.523438 5.214844 2.941406 5.214844 C 2.941406 9.320312 2.941406 13.425781 2.941406 17.527344 C 2.863281 13.464844 2.835938 9.382812 2.863281 5.292969 C 2.457031 5.320312 2.0625 5.292969 1.6875 5.214844 Z M 1.6875 5.214844 "/>
<path style=" stroke:none;fill-rule:evenodd;fill:rgb(72.941176%,72.941176%,72.941176%);fill-opacity:1;" d="M 4.507812 5.214844 C 4.507812 5.242188 4.507812 5.269531 4.507812 5.292969 C 4.496094 9.269531 4.507812 13.242188 4.550781 17.214844 C 4.597656 17.347656 4.632812 17.476562 4.664062 17.609375 C 4.554688 17.539062 4.488281 17.4375 4.472656 17.292969 C 4.40625 13.257812 4.417969 9.226562 4.507812 5.214844 Z M 4.507812 5.214844 "/>
<path style=" stroke:none;fill-rule:evenodd;fill:rgb(77.254902%,77.254902%,77.254902%);fill-opacity:1;" d="M 4.507812 5.292969 C 4.507812 5.269531 4.507812 5.242188 4.507812 5.214844 C 8.167969 5.214844 11.832031 5.214844 15.492188 5.214844 C 15.503906 9.242188 15.492188 13.269531 15.449219 17.292969 C 15.417969 17.492188 15.324219 17.648438 15.175781 17.765625 C 15.148438 17.765625 15.125 17.765625 15.097656 17.765625 C 15.230469 17.605469 15.320312 17.421875 15.371094 17.214844 C 15.414062 13.242188 15.425781 9.269531 15.414062 5.292969 C 11.777344 5.292969 8.144531 5.292969 4.507812 5.292969 Z M 4.507812 5.292969 "/>
<path style=" stroke:none;fill-rule:evenodd;fill:rgb(59.607843%,59.607843%,59.607843%);fill-opacity:1;" d="M 18.234375 5.214844 C 17.859375 5.292969 17.464844 5.320312 17.058594 5.292969 C 17.070312 9.371094 17.058594 13.449219 17.019531 17.527344 C 17 17.625 16.960938 17.707031 16.902344 17.765625 C 16.976562 13.585938 17.007812 9.398438 16.980469 5.214844 C 17.398438 5.214844 17.816406 5.214844 18.234375 5.214844 Z M 18.234375 5.214844 "/>
<path style=" stroke:none;fill-rule:evenodd;fill:rgb(49.803922%,49.803922%,49.803922%);fill-opacity:1;" d="M 7.492188 7.648438 C 7.046875 7.648438 6.601562 7.648438 6.15625 7.648438 C 6.191406 7.589844 6.242188 7.550781 6.3125 7.527344 C 6.652344 7.476562 6.992188 7.476562 7.335938 7.527344 C 7.40625 7.550781 7.457031 7.589844 7.492188 7.648438 Z M 7.492188 7.648438 "/>
<path style=" stroke:none;fill-rule:evenodd;fill:rgb(48.627451%,48.627451%,48.627451%);fill-opacity:1;" d="M 10.550781 7.570312 C 10.550781 7.59375 10.550781 7.621094 10.550781 7.648438 C 10.132812 7.648438 9.710938 7.648438 9.292969 7.648438 C 9.328125 7.589844 9.378906 7.550781 9.449219 7.527344 C 9.832031 7.464844 10.195312 7.476562 10.550781 7.570312 Z M 10.550781 7.570312 "/>
<path style=" stroke:none;fill-rule:evenodd;fill:rgb(23.921569%,23.921569%,23.921569%);fill-opacity:1;" d="M 6.15625 7.648438 C 6.601562 7.648438 7.046875 7.648438 7.492188 7.648438 C 7.539062 7.65625 7.578125 7.679688 7.609375 7.726562 C 7.660156 10.234375 7.660156 12.742188 7.609375 15.257812 C 7.578125 15.300781 7.539062 15.324219 7.492188 15.335938 C 7.015625 15.351562 6.542969 15.324219 6.078125 15.257812 C 5.988281 12.777344 5.976562 10.292969 6.039062 7.804688 C 6.0625 7.730469 6.101562 7.679688 6.15625 7.648438 Z M 6.15625 7.648438 "/>
<path style=" stroke:none;fill-rule:evenodd;fill:rgb(20.784314%,20.784314%,20.784314%);fill-opacity:1;" d="M 9.292969 7.648438 C 9.710938 7.648438 10.132812 7.648438 10.550781 7.648438 C 10.570312 7.710938 10.609375 7.761719 10.664062 7.804688 C 10.707031 10.289062 10.71875 12.773438 10.707031 15.257812 C 10.707031 15.304688 10.679688 15.335938 10.628906 15.335938 C 10.183594 15.335938 9.738281 15.335938 9.292969 15.335938 C 9.191406 12.773438 9.191406 10.210938 9.292969 7.648438 Z M 9.292969 7.648438 "/>
<path style=" stroke:none;fill-rule:evenodd;fill:rgb(20%,20%,20%);fill-opacity:1;" d="M 13.84375 15.257812 C 13.84375 15.304688 13.816406 15.335938 13.765625 15.335938 C 13.324219 15.355469 12.894531 15.332031 12.472656 15.257812 C 12.417969 12.742188 12.417969 10.234375 12.472656 7.726562 C 12.867188 7.636719 13.273438 7.621094 13.6875 7.6875 C 13.726562 7.726562 13.765625 7.765625 13.804688 7.804688 C 13.84375 10.289062 13.855469 12.773438 13.84375 15.257812 Z M 13.84375 15.257812 "/>
<path style=" stroke:none;fill-rule:evenodd;fill:rgb(74.117647%,74.117647%,74.117647%);fill-opacity:1;" d="M 9.292969 7.648438 C 9.191406 10.210938 9.191406 12.773438 9.292969 15.335938 C 9.246094 15.324219 9.207031 15.300781 9.175781 15.257812 C 9.125 12.742188 9.125 10.234375 9.175781 7.726562 C 9.207031 7.679688 9.246094 7.65625 9.292969 7.648438 Z M 9.292969 7.648438 "/>
<path style=" stroke:none;fill-rule:evenodd;fill:rgb(65.490196%,65.490196%,65.490196%);fill-opacity:1;" d="M 10.550781 7.570312 C 10.625 7.601562 10.691406 7.65625 10.742188 7.726562 C 10.808594 10.25 10.796875 12.757812 10.707031 15.257812 C 10.71875 12.773438 10.707031 10.289062 10.664062 7.804688 C 10.609375 7.761719 10.570312 7.710938 10.550781 7.648438 C 10.550781 7.621094 10.550781 7.59375 10.550781 7.570312 Z M 10.550781 7.570312 "/>
<path style=" stroke:none;fill-rule:evenodd;fill:rgb(52.156863%,52.156863%,52.156863%);fill-opacity:1;" d="M 13.84375 15.257812 C 13.855469 12.773438 13.84375 10.289062 13.804688 7.804688 C 13.765625 7.765625 13.726562 7.726562 13.6875 7.6875 C 13.273438 7.621094 12.867188 7.636719 12.472656 7.726562 C 12.417969 10.234375 12.417969 12.742188 12.472656 15.257812 C 12.894531 15.332031 13.324219 15.355469 13.765625 15.335938 C 13.335938 15.527344 12.894531 15.539062 12.429688 15.371094 C 12.382812 15.3125 12.34375 15.246094 12.3125 15.175781 C 12.238281 12.660156 12.261719 10.148438 12.390625 7.648438 C 12.621094 7.523438 12.867188 7.476562 13.136719 7.492188 C 13.429688 7.449219 13.679688 7.527344 13.882812 7.726562 C 13.945312 10.25 13.933594 12.757812 13.84375 15.257812 Z M 13.84375 15.257812 "/>
<path style=" stroke:none;fill-rule:evenodd;fill:rgb(58.039216%,58.039216%,58.039216%);fill-opacity:1;" d="M 6.078125 15.257812 C 6.542969 15.324219 7.015625 15.351562 7.492188 15.335938 C 7.457031 15.390625 7.40625 15.429688 7.335938 15.449219 C 6.992188 15.503906 6.652344 15.503906 6.3125 15.449219 C 6.199219 15.421875 6.121094 15.355469 6.078125 15.257812 Z M 6.078125 15.257812 "/>
<path style=" stroke:none;fill-rule:evenodd;fill:rgb(67.058824%,67.058824%,67.058824%);fill-opacity:1;" d="M 9.292969 15.335938 C 9.738281 15.335938 10.183594 15.335938 10.628906 15.335938 C 10.59375 15.390625 10.542969 15.429688 10.472656 15.449219 C 10.132812 15.503906 9.789062 15.503906 9.449219 15.449219 C 9.378906 15.429688 9.328125 15.390625 9.292969 15.335938 Z M 9.292969 15.335938 "/>
<path style=" stroke:none;fill-rule:evenodd;fill:rgb(60.784314%,60.784314%,60.784314%);fill-opacity:1;" d="M 2.941406 17.527344 C 2.992188 17.582031 3.046875 17.632812 3.097656 17.6875 C 3.132812 17.898438 3.1875 18.109375 3.257812 18.3125 C 3.074219 18.089844 2.972656 17.832031 2.941406 17.527344 Z M 2.941406 17.527344 "/>
<path style=" stroke:none;fill-rule:evenodd;fill:rgb(35.686275%,35.686275%,35.686275%);fill-opacity:1;" d="M 4.664062 17.609375 C 4.726562 17.632812 4.78125 17.667969 4.824219 17.726562 C 8.246094 17.765625 11.671875 17.777344 15.097656 17.765625 C 15.125 17.765625 15.148438 17.765625 15.175781 17.765625 C 11.710938 17.855469 8.234375 17.867188 4.742188 17.804688 C 4.6875 17.75 4.660156 17.6875 4.664062 17.609375 Z M 4.664062 17.609375 "/>
<path style=" stroke:none;fill-rule:evenodd;fill:rgb(59.215686%,59.215686%,59.215686%);fill-opacity:1;" d="M 16.902344 17.765625 C 16.910156 17.925781 16.855469 18.054688 16.742188 18.15625 C 16.738281 17.996094 16.789062 17.867188 16.902344 17.765625 Z M 16.902344 17.765625 "/>
<path style=" stroke:none;fill-rule:evenodd;fill:rgb(64.313725%,64.313725%,64.313725%);fill-opacity:1;" d="M 3.257812 18.3125 C 3.367188 18.351562 3.417969 18.429688 3.414062 18.550781 C 3.300781 18.511719 3.25 18.433594 3.257812 18.3125 Z M 3.257812 18.3125 "/>
<path style=" stroke:none;fill-rule:evenodd;fill:rgb(68.235294%,68.235294%,68.235294%);fill-opacity:1;" d="M 16.664062 18.3125 C 16.671875 18.433594 16.617188 18.511719 16.507812 18.550781 C 16.503906 18.429688 16.554688 18.351562 16.664062 18.3125 Z M 16.664062 18.3125 "/>
<path style=" stroke:none;fill-rule:evenodd;fill:rgb(65.882353%,65.882353%,65.882353%);fill-opacity:1;" d="M 3.492188 18.707031 C 3.664062 18.75 3.796875 18.855469 3.882812 19.019531 C 3.707031 18.976562 3.574219 18.867188 3.492188 18.707031 Z M 3.492188 18.707031 "/>
<path style=" stroke:none;fill-rule:evenodd;fill:rgb(72.156863%,72.156863%,72.156863%);fill-opacity:1;" d="M 16.429688 18.628906 C 16.4375 18.746094 16.382812 18.824219 16.273438 18.863281 C 16.269531 18.742188 16.320312 18.664062 16.429688 18.628906 Z M 16.429688 18.628906 "/>
<path style=" stroke:none;fill-rule:evenodd;fill:rgb(75.686275%,75.686275%,75.686275%);fill-opacity:1;" d="M 16.273438 18.863281 C 16.238281 18.972656 16.160156 19.023438 16.039062 19.019531 C 16.074219 18.910156 16.15625 18.855469 16.273438 18.863281 Z M 16.273438 18.863281 "/>
<path style=" stroke:none;fill-rule:evenodd;fill:rgb(61.176471%,61.176471%,61.176471%);fill-opacity:1;" d="M 3.882812 19.019531 C 4.003906 19.011719 4.082031 19.066406 4.117188 19.175781 C 3.996094 19.179688 3.917969 19.132812 3.882812 19.019531 Z M 3.882812 19.019531 "/>
<path style=" stroke:none;fill-rule:evenodd;fill:rgb(39.215686%,39.215686%,39.215686%);fill-opacity:1;" d="M 4.117188 19.175781 C 7.90625 19.253906 11.695312 19.277344 15.492188 19.257812 C 15.492188 19.28125 15.492188 19.304688 15.492188 19.335938 C 11.75 19.347656 8.011719 19.335938 4.273438 19.292969 C 4.203125 19.273438 4.148438 19.234375 4.117188 19.175781 Z M 4.117188 19.175781 "/>
<path style=" stroke:none;fill-rule:evenodd;fill:rgb(71.764706%,71.764706%,71.764706%);fill-opacity:1;" d="M 15.804688 19.175781 C 15.726562 19.269531 15.617188 19.320312 15.492188 19.335938 C 15.492188 19.304688 15.492188 19.28125 15.492188 19.257812 C 15.585938 19.195312 15.691406 19.171875 15.804688 19.175781 Z M 15.804688 19.175781 "/>
</g>
</svg>
